<!-- Created with Inkscape (http://www.inkscape.org/) -->
<svg xmlns:rdf="http://www.w3.org/1999/02/22-rdf-syntax-ns#" xmlns="http://www.w3.org/2000/svg" height="191.27" width="591.65" version="1.1" xmlns:cc="http://creativecommons.org/ns#" xmlns:dc="http://purl.org/dc/elements/1.1/">
<metadata>
<rdf:RDF>
<cc:Work rdf:about="">
<dc:format>image/svg+xml</dc:format>
<dc:type rdf:resource="http://purl.org/dc/dcmitype/StillImage"/>
<dc:title/>
</cc:Work>
</rdf:RDF>
</metadata>
<g transform="translate(-64.152019,-51.985182)">
<path d="m624.17,53.558c-17.455,0-31.628,14.596-31.628,32.619,0,18.044,14.173,32.66,31.628,32.66,17.476,0,31.628-14.617,31.628-32.66,0-18.023-14.152-32.619-31.628-32.619" style="fill-rule:nonzero;fill:#ffffff;"/>
<path d="m503.89,53.558c-17.455,0-31.628,14.596-31.628,32.619,0,18.044,14.173,32.66,31.628,32.66,17.476,0,31.628-14.617,31.628-32.66,0-18.023-14.152-32.619-31.628-32.619" style="fill-rule:nonzero;fill:#ffffff;"/>
<path style="fill-rule:nonzero;fill:#ffffff;" d="m432.54,55.071-40.826,0,0,185.66,40.826,0,0-185.66z"/>
<path d="m624.17,177.29c-17.455,0-31.628,14.617-31.628,32.64,0,18.044,14.173,32.64,31.628,32.64,17.476,0,31.628-14.596,31.628-32.64,0-18.023-14.152-32.64-31.628-32.64" style="fill-rule:nonzero;fill:#ffffff;"/>
<path d="m564.03,115.43c-17.455,0-31.628,14.596-31.628,32.598,0,18.044,14.173,32.702,31.628,32.702,17.476,0,31.628-14.658,31.628-32.702,0-18.002-14.152-32.598-31.628-32.598" style="fill-rule:nonzero;fill:#ffffff;"/>
<path d="m503.89,177.29c-17.455,0-31.628,14.617-31.628,32.64,0,18.044,14.173,32.64,31.628,32.64,17.476,0,31.628-14.596,31.628-32.64,0-18.023-14.152-32.64-31.628-32.64" style="fill-rule:nonzero;fill:#ffffff;"/>
<path d="m129.96,51.985c-41.073,0-65.806,24.722-65.806,57.321,0,6.5135,1.0529,13.037,3.1484,19.84l37.378,3.2413c-1.5793-5.4193-2.3638-11.386-2.3638-17.094,0-15.504,6.8335-29.615,25.022-29.615,15.267,0,24.743,9.4967,24.743,26.064,0,23.081-18.168,40.227-32.908,54.069-17.383,16.289-38.451,34.518-55.019,46.451v27.726h127.68v-34.498h-70.018c9.4761-6.7922,17.094-12.521,26.312-20.119,23.164-19.819,44.232-41.29,44.232-75.509,0-35.076-22.906-57.878-62.4-57.878" style="fill-rule:nonzero;fill:#ffffff;"/>
<path d="m285.04,51.985c-53.45,0-67.396,51.592-67.396,96.712,0,46.193,16.568,94.554,67.396,94.554,55.019,0,67.396-51.365,67.396-94.554-0.78451-47.256-15.277-96.712-67.396-96.712m0,154.31c-24.753,0-27.644-31.515-27.644-57.6,0-26.632,3.169-59.757,27.644-59.757s27.644,33.125,27.644,59.757c0,26.085-2.6426,57.6-27.644,57.6" style="fill-rule:nonzero;fill:#ffffff;"/>
</g>
</svg>
