<?xml version="1.0" encoding="UTF-8" standalone="no"?>
<!-- Created with Inkscape (http://www.inkscape.org/) -->

<svg
   xmlns:dc="http://purl.org/dc/elements/1.1/"
   xmlns:cc="http://creativecommons.org/ns#"
   xmlns:rdf="http://www.w3.org/1999/02/22-rdf-syntax-ns#"
   xmlns:svg="http://www.w3.org/2000/svg"
   xmlns="http://www.w3.org/2000/svg"
   xmlns:sodipodi="http://sodipodi.sourceforge.net/DTD/sodipodi-0.dtd"
   xmlns:inkscape="http://www.inkscape.org/namespaces/inkscape"
   width="210.2"
   height="269.20001"
   preserveAspectRatio="none"
   viewBox="0 0 210.2 269.20001"
   id="svg4589"
   version="1.1"
   inkscape:version="0.48.4 r9939"
   sodipodi:docname="n.svg">
  <defs
     id="defs4591" />
  <sodipodi:namedview
     id="base"
     pagecolor="#ffffff"
     bordercolor="#666666"
     borderopacity="1.0"
     inkscape:pageopacity="0.0"
     inkscape:pageshadow="2"
     inkscape:zoom="1.4"
     inkscape:cx="270.55973"
     inkscape:cy="256.1419"
     inkscape:document-units="px"
     inkscape:current-layer="layer1"
     showgrid="false"
     fit-margin-top="0"
     fit-margin-left="0"
     fit-margin-right="0"
     fit-margin-bottom="0"
     inkscape:window-width="1920"
     inkscape:window-height="1058"
     inkscape:window-x="1366"
     inkscape:window-y="0"
     inkscape:window-maximized="1" />
  <metadata
     id="metadata4594">
    <rdf:RDF>
      <cc:Work
         rdf:about="">
        <dc:format>image/svg+xml</dc:format>
        <dc:type
           rdf:resource="http://purl.org/dc/dcmitype/StillImage" />
        <dc:title />
      </cc:Work>
    </rdf:RDF>
  </metadata>
  <g
     inkscape:label="Layer 1"
     inkscape:groupmode="layer"
     id="layer1"
     transform="translate(-287.9128,-397.76236)">
    <g
       id="g3060"
       transform="matrix(14.950592,0,0,-14.950592,393.02775,423.10326)"
       style="fill:#00af3f;fill-opacity:1">
      <path
         d="m 0,0 1.283,1.695 3.03,0 -3.03,-3.84 -2.695,0 -2.846,3.84 2.949,0 L 0,0 z m 5.824,-16.311 -3.746,0 0,6.356 c 0,1.935 -0.078,3.285 -1.926,3.285 -1.564,0 -2.23,-1.273 -2.23,-2.994 l 0,-6.647 -3.748,0 0,12.606 3.697,0 0,-1.563 c 0.588,1.034 1.922,1.881 3.668,1.881 1.412,0 2.488,-0.398 3.209,-1.22 0.768,-0.901 1.076,-1.774 1.076,-4.553 l 0,-7.151 z"
         style="fill:#00af3f;fill-opacity:1;fill-rule:nonzero;stroke:none"
         id="path3062"
         inkscape:connector-curvature="0" />
    </g>
  </g>
</svg>
