<?xml version="1.0" encoding="UTF-8" standalone="no"?>
<!-- Created with Inkscape (http://www.inkscape.org/) -->

<svg
   xmlns:dc="http://purl.org/dc/elements/1.1/"
   xmlns:cc="http://creativecommons.org/ns#"
   xmlns:rdf="http://www.w3.org/1999/02/22-rdf-syntax-ns#"
   xmlns:svg="http://www.w3.org/2000/svg"
   xmlns="http://www.w3.org/2000/svg"
   xmlns:sodipodi="http://sodipodi.sourceforge.net/DTD/sodipodi-0.dtd"
   xmlns:inkscape="http://www.inkscape.org/namespaces/inkscape"
   width="210.25017"
   height="269.20035"
   preserveAspectRatio="none"
   viewBox="0 0 210.25017 269.20035"
   id="svg4416"
   version="1.1"
   inkscape:version="0.48.4 r9939"
   sodipodi:docname="p.svg">
  <defs
     id="defs4418" />
  <sodipodi:namedview
     id="base"
     pagecolor="#ffffff"
     bordercolor="#666666"
     borderopacity="1.0"
     inkscape:pageopacity="0.0"
     inkscape:pageshadow="2"
     inkscape:zoom="0.35"
     inkscape:cx="607.41325"
     inkscape:cy="500.62889"
     inkscape:document-units="px"
     inkscape:current-layer="layer1"
     showgrid="false"
     fit-margin-top="0"
     fit-margin-left="0"
     fit-margin-right="0"
     fit-margin-bottom="0"
     inkscape:window-width="1920"
     inkscape:window-height="1058"
     inkscape:window-x="1366"
     inkscape:window-y="0"
     inkscape:window-maximized="1" />
  <metadata
     id="metadata4421">
    <rdf:RDF>
      <cc:Work
         rdf:about="">
        <dc:format>image/svg+xml</dc:format>
        <dc:type
           rdf:resource="http://purl.org/dc/dcmitype/StillImage" />
      </cc:Work>
    </rdf:RDF>
  </metadata>
  <g
     inkscape:label="Layer 1"
     inkscape:groupmode="layer"
     id="layer1"
     transform="translate(-269.87492,-397.762)">
    <g
       id="g3038"
       transform="matrix(14.950592,0,0,-14.950592,327.80846,450.02927)"
       style="fill:#00af3f">
      <path
         d="m 0,0 0,-4.473 3.053,0 c 0.847,0 1.564,0.053 2.103,0.317 0.744,0.318 1.131,0.873 1.131,1.906 0,1.111 -0.41,1.67 -1.156,1.986 C 4.594,-0.051 3.875,0 3.027,0 L 0,0 z m 0,-7.994 0,-6.516 -3.875,0 0,18.006 6.672,0 c 1.898,0 3.156,-0.211 4.078,-0.582 2.004,-0.822 3.313,-2.594 3.313,-5.217 0,-2.277 -0.823,-3.705 -2.44,-4.713 C 6.338,-7.861 4.721,-7.994 2.59,-7.994 l -2.59,0 z"
         style="fill:#00af3f;fill-opacity:1;fill-rule:nonzero;stroke:none"
         id="path3040"
         inkscape:connector-curvature="0" />
    </g>
  </g>
</svg>
